<?xml version="1.0" standalone="no"?>
<!DOCTYPE svg PUBLIC "-//W3C//DTD SVG 20010904//EN"
 "http://www.w3.org/TR/2001/REC-SVG-20010904/DTD/svg10.dtd">
<svg version="1.0" xmlns="http://www.w3.org/2000/svg"
 width="400.000000pt" height="400.000000pt" viewBox="0 0 400.000000 400.000000"
 preserveAspectRatio="xMidYMid meet">
<metadata>
Created by potrace 1.14, written by Peter Selinger 2001-2017
</metadata>
<g transform="translate(0.000000,400.000000) scale(0.100000,-0.100000)"
fill="#000000" stroke="none">
<path d="M1791 3713 c-44 -11 -59 -18 -50 -24 11 -7 9 -9 -7 -9 -21 0 -58 -13
-134 -48 -50 -22 -258 -139 -300 -168 -162 -112 -330 -284 -443 -454 -142
-214 -259 -419 -296 -520 -104 -286 -130 -688 -62 -978 62 -266 208 -540 376
-707 103 -104 324 -211 537 -260 208 -49 414 -70 597 -61 112 6 173 16 351 57
300 70 383 102 560 216 105 68 267 231 343 345 108 162 179 399 207 691 18
179 8 505 -18 612 -60 246 -162 535 -236 670 -18 33 -46 89 -62 125 -40 91
-118 203 -176 254 -73 63 -186 125 -270 146 -40 10 -109 28 -153 40 -115 32
-151 39 -231 50 -39 5 -108 16 -154 24 -102 20 -292 19 -379 -1z"/>
</g>
</svg>
